<svg width="31" height="37" viewBox="0 0 31 37" fill="none" xmlns="http://www.w3.org/2000/svg">
<path d="M25.7465 19.6452C25.7035 14.9782 29.6658 12.7077 29.847 12.602C27.6029 9.41207 24.1247 8.97622 22.9025 8.94147C19.9812 8.64173 17.1476 10.6458 15.6595 10.6458C14.1416 10.6458 11.8501 8.97043 9.38028 9.01966C6.20208 9.06744 3.22884 10.8615 1.59815 13.6475C-1.76717 19.328 0.742712 27.6758 3.96695 32.2675C5.57981 34.5162 7.46445 37.0271 9.93127 36.9388C12.3446 36.8417 13.2461 35.4386 16.1585 35.4386C19.0441 35.4386 19.8906 36.9388 22.4064 36.8823C24.9965 36.8417 26.6272 34.6234 28.1836 32.3544C30.0475 29.7769 30.796 27.2385 30.8257 27.1082C30.7648 27.0879 25.7955 25.2388 25.7465 19.6452Z" fill="white"/>
<path d="M20.9941 5.92092C22.2921 4.33824 23.1802 2.18505 22.9337 0C21.055 0.0810886 18.7055 1.26701 17.3525 2.81493C16.1555 4.17896 15.0862 6.41469 15.3624 8.5172C17.4728 8.67069 19.6396 7.47898 20.9941 5.92092Z" fill="white"/>
</svg>
