<svg width="35" height="38" viewBox="0 0 35 38" fill="none" xmlns="http://www.w3.org/2000/svg">
<path d="M0.688732 0.575584C0.252472 1.02146 0 1.71565 0 2.61465V34.6815C0 35.5805 0.252472 36.2747 0.688732 36.7206L0.796405 36.8184L19.201 18.8565V18.4324L0.796405 0.470462L0.688732 0.575584Z" fill="url(#paint0_linear_29_14067)"/>
<path d="M25.3291 24.8468L19.201 18.8564V18.4323L25.3365 12.442L25.4739 12.5199L32.7399 16.5564C34.8136 17.7019 34.8136 19.5869 32.7399 20.7396L25.4739 24.7688L25.3291 24.8468Z" fill="url(#paint1_linear_29_14067)"/>
<path d="M25.4738 24.7692L19.201 18.6447L0.688721 36.7208C1.37745 37.4277 2.50059 37.5129 3.77781 36.806L25.4738 24.7692Z" fill="url(#paint2_linear_29_14067)"/>
<path d="M25.4738 12.5202L3.77781 0.483314C2.50059 -0.216313 1.37745 -0.131126 0.688721 0.57575L19.201 18.6446L25.4738 12.5202Z" fill="url(#paint3_linear_29_14067)"/>
<defs>
<linearGradient id="paint0_linear_29_14067" x1="17.5669" y1="35.0154" x2="-6.76069" y2="10.0984" gradientUnits="userSpaceOnUse">
<stop stop-color="#00A0FF"/>
<stop offset="0.0066" stop-color="#00A1FF"/>
<stop offset="0.2601" stop-color="#00BEFF"/>
<stop offset="0.5122" stop-color="#00D2FF"/>
<stop offset="0.7604" stop-color="#00DFFF"/>
<stop offset="1" stop-color="#00E3FF"/>
</linearGradient>
<linearGradient id="paint1_linear_29_14067" x1="35.4402" y1="18.6423" x2="-0.495607" y2="18.6423" gradientUnits="userSpaceOnUse">
<stop stop-color="#FFE000"/>
<stop offset="0.4087" stop-color="#FFBD00"/>
<stop offset="0.7754" stop-color="#FFA500"/>
<stop offset="1" stop-color="#FF9C00"/>
</linearGradient>
<linearGradient id="paint2_linear_29_14067" x1="22.0628" y1="15.3154" x2="-10.9273" y2="-18.4742" gradientUnits="userSpaceOnUse">
<stop stop-color="#FF3A44"/>
<stop offset="1" stop-color="#C31162"/>
</linearGradient>
<linearGradient id="paint3_linear_29_14067" x1="-3.9712" y1="47.3892" x2="10.7604" y2="32.3008" gradientUnits="userSpaceOnUse">
<stop stop-color="#32A071"/>
<stop offset="0.0685" stop-color="#2DA771"/>
<stop offset="0.4762" stop-color="#15CF74"/>
<stop offset="0.8009" stop-color="#06E775"/>
<stop offset="1" stop-color="#00F076"/>
</linearGradient>
</defs>
</svg>
