<svg width="56" height="19" viewBox="0 0 56 19" fill="none" xmlns="http://www.w3.org/2000/svg">
<rect x="-2" width="58" height="19" rx="6" fill="#5AFEAE"/>
<path d="M43.1066 6.11659L40.5173 15.4091V15.4385H42.545L45.1343 6.1459H43.1066V6.11659ZM11.0989 11.3931C10.7869 11.5397 10.4749 11.5983 10.1318 11.5983C9.41425 11.5983 9.0087 11.4811 8.94631 10.9241V10.8948C8.94631 10.8655 8.94631 10.8655 8.94631 10.8362V9.22388V9.048V7.90475V7.43572V7.25984V6.17522L7.1369 6.38042C8.35357 6.14591 9.03989 5.26648 9.03989 4.35775V3.80078H7.01212V6.40973L6.88733 6.43904V11.2465C6.94972 12.595 7.91682 13.4158 9.44545 13.4158C10.007 13.4158 10.5997 13.2985 11.0677 13.0933L11.0989 11.3931Z" fill="#292929"/>
<path d="M11.4111 5.76467L5.73328 6.58546V7.93391L11.4111 7.11311V5.76467ZM11.4111 7.75802L5.73328 8.57882V9.86863L11.4111 9.04784V7.75802ZM17.7752 8.37362C17.6816 6.8786 16.6833 5.96987 15.0611 5.96987C14.1252 5.96987 13.3452 6.32163 12.8149 6.96654C12.2846 7.61145 12.0038 8.5495 12.0038 9.69275C12.0038 10.836 12.2846 11.774 12.8149 12.419C13.3452 13.0639 14.1252 13.3863 15.0611 13.3863C16.6833 13.3863 17.6816 12.5069 17.7752 10.9826V13.2397H19.8029V6.14575L17.7752 6.43889V8.37362ZM17.8999 9.69275C17.8999 11.0119 17.1512 11.8913 15.997 11.8913C14.8115 11.8913 14.094 11.0705 14.094 9.69275C14.094 8.31499 14.8115 7.4942 15.997 7.4942C16.5585 7.4942 17.0576 7.6994 17.4008 8.10979C17.7128 8.49087 17.8999 9.04784 17.8999 9.69275ZM25.6991 5.96987C24.0769 5.96987 23.0786 6.84929 22.985 8.37362V4.06445L20.9572 4.35759V13.2397H22.985V10.9826C23.0786 12.5069 24.0769 13.3863 25.6991 13.3863C27.6021 13.3863 28.7564 12.0086 28.7564 9.69275C28.7564 7.37694 27.6021 5.96987 25.6991 5.96987ZM24.7944 11.8913C23.6401 11.8913 22.8914 11.0412 22.8914 9.69275C22.8914 9.04784 23.0786 8.49087 23.3905 8.10979C23.7337 7.6994 24.2017 7.4942 24.7944 7.4942C25.9799 7.4942 26.6974 8.31499 26.6974 9.69275C26.6974 11.0705 25.9799 11.8913 24.7944 11.8913ZM34.247 5.96987C32.6247 5.96987 31.6264 6.84929 31.5329 8.37362V4.06445L29.5051 4.35759V13.2397H31.5329V10.9826C31.6264 12.5069 32.6247 13.3863 34.247 13.3863C36.15 13.3863 37.3042 12.0086 37.3042 9.69275C37.3042 7.37694 36.15 5.96987 34.247 5.96987ZM33.3423 11.8913C32.188 11.8913 31.4393 11.0412 31.4393 9.69275C31.4393 9.04784 31.6264 8.49087 31.9384 8.10979C32.2816 7.6994 32.7495 7.4942 33.3423 7.4942C34.5277 7.4942 35.2453 8.31499 35.2453 9.69275C35.2453 11.0705 34.5277 11.8913 33.3423 11.8913ZM37.3042 6.11644H39.4568L41.2038 13.2397H39.2696L37.3042 6.11644ZM46.788 6.84929V6.29232H46.5384V6.17507H47.1935V6.29232H46.944V6.84929H46.788ZM47.2247 6.84929V6.14575H47.4743L47.5991 6.46821C47.6303 6.55615 47.6615 6.58546 47.6615 6.61478C47.6615 6.58546 47.6927 6.55615 47.7239 6.46821L47.8487 6.14575H48.0982V6.84929H47.9423V6.29232L47.7239 6.84929H47.5679L47.3807 6.29232V6.84929H47.2247Z" fill="#292929"/>
</svg>
